<svg xmlns="http://www.w3.org/2000/svg" viewBox="0 0 100 100">
  <defs>
    <linearGradient id="grad" x1="0%" y1="0%" x2="100%" y2="100%">
      <stop offset="0%" style="stop-color:#22c55e;stop-opacity:1" />
      <stop offset="100%" style="stop-color:#16a34a;stop-opacity:1" />
    </linearGradient>
  </defs>
  <circle cx="50" cy="50" r="48" fill="url(#grad)"/>
  <path d="M50 20 C50 20 30 45 30 60 C30 71 39 80 50 80 C61 80 70 71 70 60 C70 45 50 20 50 20 Z" fill="white" opacity="0.9"/>
  <path d="M50 35 C50 35 40 50 40 58 C40 63 44 67 50 67 C56 67 60 63 60 58 C60 50 50 35 50 35 Z" fill="#22c55e"/>
  <line x1="50" y1="60" x2="50" y2="80" stroke="white" stroke-width="3"/>
  <line x1="42" y1="65" x2="50" y2="72" stroke="white" stroke-width="2"/>
  <line x1="58" y1="65" x2="50" y2="72" stroke="white" stroke-width="2"/>
</svg>
